<svg width="40" height="40" viewBox="0 0 40 40" fill="none" xmlns="http://www.w3.org/2000/svg">
<path fill-rule="evenodd" clip-rule="evenodd" d="M3.75 20C3.75 11.0284 11.0284 3.75 20 3.75C28.9716 3.75 36.25 11.0284 36.25 20C36.25 28.9716 28.9716 36.25 20 36.25C11.0284 36.25 3.75 28.9716 3.75 20ZM20 6.25C12.4091 6.25 6.25 12.4091 6.25 20C6.25 27.5909 12.4091 33.75 20 33.75C27.5909 33.75 33.75 27.5909 33.75 20C33.75 12.4091 27.5909 6.25 20 6.25Z" fill="#ED7203"/>
<path fill-rule="evenodd" clip-rule="evenodd" d="M28.304 12.7929C28.8326 13.2369 28.9012 14.0254 28.4571 14.554L17.9571 27.054C17.7244 27.3311 17.3831 27.4937 17.0213 27.4998C16.6596 27.506 16.3129 27.3552 16.0709 27.0862L11.5709 22.0862C11.1091 21.5731 11.1507 20.7827 11.6638 20.3209C12.1769 19.8591 12.9673 19.9007 13.4291 20.4138L16.9675 24.3453L26.5429 12.946C26.9869 12.4174 27.7754 12.3489 28.304 12.7929Z" fill="#ED7203"/>
</svg>
