<svg width="24" height="16" viewBox="0 0 24 16" fill="none" xmlns="http://www.w3.org/2000/svg">
<path fill-rule="evenodd" clip-rule="evenodd" d="M20.9972 11.0908C22.899 10.7621 24 9.56395 24 7.76143C24 5.74685 22.5876 4.47449 20.241 4.36846C20.241 1.77071 16.1594 0 10.1205 0C4.08156 0 0 1.77071 0 4.37906V6.5951C0 8.03711 0.266914 9.36249 0.756256 10.5394C0.79451 10.6314 1.557 12.0451 1.557 12.0451C3.19184 14.505 6.03892 16 9.59778 16H10.6321C14.1909 16 17.038 14.505 18.6728 12.0451C18.6728 12.0451 18.8838 11.6948 19.1371 11.1962C19.3888 10.7006 19.6822 10.0586 19.8517 9.46852C20.1075 8.57787 20.241 7.61299 20.241 6.5951V6.07555C21.4866 6.17097 22.2095 6.78595 22.2095 7.76143C22.2095 8.82174 21.3531 9.46852 19.9073 9.46852H19.8517C19.6822 10.0586 19.3888 10.7006 19.1371 11.1962C20.0091 11.2805 20.7405 11.1611 20.9972 11.0908ZM1.79055 4.37906C1.79055 5.88469 5.32715 7.04042 10.1205 7.04042C14.9138 7.04042 18.4504 5.88469 18.4504 4.37906C18.4504 2.87343 14.9138 1.70709 10.1205 1.70709C5.32715 1.70709 1.79055 2.87343 1.79055 4.37906ZM18.4393 7.02982C16.6821 8.11133 13.7572 8.74751 10.1205 8.74751C6.48378 8.74751 3.55885 8.11133 1.80167 7.02982C1.99073 11.3877 4.98239 14.2929 9.59778 14.2929H10.6321C15.2363 14.2929 18.2502 11.3665 18.4393 7.02982Z" fill="#D8B149"/>
<path d="M10.1205 8.74751C13.7572 8.74751 16.6821 8.11133 18.4393 7.02982C18.2502 11.3665 15.2363 14.2929 10.6321 14.2929H9.59778C4.98239 14.2929 1.99073 11.3877 1.80167 7.02982C3.55885 8.11133 6.48378 8.74751 10.1205 8.74751Z" fill="#F3D27B"/>
<path d="M10.1205 7.04042C5.32715 7.04042 1.79055 5.88469 1.79055 4.37906C1.79055 2.87343 5.32715 1.70709 10.1205 1.70709C14.9138 1.70709 18.4504 2.87343 18.4504 4.37906C18.4504 5.88469 14.9138 7.04042 10.1205 7.04042Z" fill="#E2E8F0"/>
</svg>
