<svg fill="currentColor" xmlns="http://www.w3.org/2000/svg" xmlns:xlink="http://www.w3.org/1999/xlink" viewBox="0 0 9 7" version="1.1">
  <path
    d="M0.53692902,7 L8.46307098,7 C8.75960869,7 9,6.77614237 9,6.5 C9,6.22385763 8.75960869,6 8.46307098,6 L0.53692902,6 C0.240391311,6 0,6.22385763 0,6.5 C0,6.77614237 0.240391311,7 0.53692902,7 Z"
    id="Line-3"/>
  <path
    d="M0.53692902,4 L8.46307098,4 C8.75960869,4 9,3.77614237 9,3.5 C9,3.22385763 8.75960869,3 8.46307098,3 L0.53692902,3 C0.240391311,3 0,3.22385763 0,3.5 C0,3.77614237 0.240391311,4 0.53692902,4 Z"
    id="Line-3-Copy"/>
  <path
    d="M0.53692902,1 L8.46307098,1 C8.75960869,1 9,0.776142375 9,0.5 C9,0.223857625 8.75960869,0 8.46307098,0 L0.53692902,0 C0.240391311,0 0,0.223857625 0,0.5 C0,0.776142375 0.240391311,1 0.53692902,1 Z"
    id="Line-3-Copy-2"/>
</svg>