<svg width="20" height="21" viewBox="0 0 20 21" fill="none" xmlns="http://www.w3.org/2000/svg">
<path fill-rule="evenodd" clip-rule="evenodd" d="M4.336 4.25124C4.68051 4.22971 4.97724 4.49153 4.99877 4.83603L5.78002 17.336C5.78017 17.3383 5.7803 17.3406 5.78042 17.343C5.80203 17.7636 6.08129 18 6.40624 18H13.5937C13.9155 18 14.1935 17.7689 14.2199 17.3369L15.0012 4.83603C15.0227 4.49153 15.3195 4.22971 15.664 4.25124C16.0085 4.27277 16.2703 4.5695 16.2488 4.91401L15.4676 17.4131C15.4676 17.4132 15.4676 17.4132 15.4676 17.4133C15.4056 18.4258 14.6524 19.25 13.5937 19.25H6.40624C5.35747 19.25 4.58656 18.433 4.53226 17.4108L3.75121 4.91401C3.72968 4.5695 3.9915 4.27277 4.336 4.25124Z" fill="white"/>
<path fill-rule="evenodd" clip-rule="evenodd" d="M2.5 4.875C2.5 4.52982 2.77982 4.25 3.125 4.25H16.875C17.2202 4.25 17.5 4.52982 17.5 4.875C17.5 5.22018 17.2202 5.5 16.875 5.5H3.125C2.77982 5.5 2.5 5.22018 2.5 4.875Z" fill="white"/>
<path fill-rule="evenodd" clip-rule="evenodd" d="M8.54346 3.25C8.49892 3.24988 8.45479 3.25783 8.41361 3.27341C8.37243 3.28898 8.33502 3.31185 8.30352 3.34073C8.27202 3.3696 8.24707 3.4039 8.23008 3.44164C8.21309 3.47939 8.20442 3.51984 8.20455 3.56067L8.20455 3.5625V4.5H12.2954V3.5625L12.2955 3.56067C12.2956 3.51984 12.2869 3.47939 12.2699 3.44164C12.2529 3.40389 12.228 3.3696 12.1965 3.34073C12.165 3.31186 12.1276 3.28898 12.0864 3.27341C12.0452 3.25783 12.0011 3.24988 11.9565 3.25L11.9545 3.25H8.54546L8.54346 3.25ZM8.54633 2C8.32242 1.99954 8.10061 2.03959 7.89362 2.11786C7.68627 2.19626 7.49788 2.31146 7.33929 2.45684C7.18069 2.60223 7.05501 2.77492 6.96948 2.96498C6.8841 3.15473 6.84041 3.35805 6.84092 3.5633V5.125C6.84092 5.47018 7.14618 5.75 7.52273 5.75H12.9773C13.3538 5.75 13.6591 5.47018 13.6591 5.125V3.56343C13.6596 3.35814 13.6159 3.15477 13.5305 2.96498C13.445 2.77492 13.3193 2.60223 13.1607 2.45684C13.0021 2.31146 12.8137 2.19626 12.6064 2.11786C12.3994 2.03959 12.1776 1.99954 11.9537 2H8.54633ZM7.15749 7.0004C7.53381 6.98808 7.84977 7.25774 7.86321 7.60269L8.20412 16.3527C8.21756 16.6976 7.92339 16.9873 7.54707 16.9996C7.17075 17.0119 6.85479 16.7423 6.84135 16.3973L6.50044 7.64731C6.487 7.30235 6.78117 7.01272 7.15749 7.0004ZM13.3425 7.0004C13.7188 7.01272 14.013 7.30235 13.9996 7.64731L13.6586 16.3973C13.6452 16.7423 13.3292 17.0119 12.9529 16.9996C12.5766 16.9873 12.2824 16.6976 12.2959 16.3527L12.6368 7.60269C12.6502 7.25774 12.9662 6.98808 13.3425 7.0004ZM10.25 7C10.6266 7 10.9318 7.27982 10.9318 7.625V16.375C10.9318 16.7202 10.6266 17 10.25 17C9.87344 17 9.56818 16.7202 9.56818 16.375V7.625C9.56818 7.27982 9.87344 7 10.25 7Z" fill="white"/>
</svg>
